<?xml version="1.0" encoding="UTF-8"?>
<!DOCTYPE svg PUBLIC "-//W3C//DTD SVG 1.1//EN" "http://www.w3.org/Graphics/SVG/1.1/DTD/svg11.dtd">
<svg xmlns="http://www.w3.org/2000/svg" version="1.1" width="143px" height="60px" style="shape-rendering:geometricPrecision; text-rendering:geometricPrecision; image-rendering:optimizeQuality; fill-rule:evenodd; clip-rule:evenodd" xmlns:xlink="http://www.w3.org/1999/xlink">
<g><path style="opacity:1" fill="#fdfdfd" d="M -0.5,-0.5 C 47.1667,-0.5 94.8333,-0.5 142.5,-0.5C 142.5,19.5 142.5,39.5 142.5,59.5C 94.8333,59.5 47.1667,59.5 -0.5,59.5C -0.5,39.5 -0.5,19.5 -0.5,-0.5 Z"/></g>
<g><path style="opacity:1" fill="#b6b6e6" d="M 96.5,12.5 C 102.645,11.5098 108.978,11.1765 115.5,11.5C 115.784,13.4147 115.451,15.0813 114.5,16.5C 114.5,15.1667 114.5,13.8333 114.5,12.5C 108.5,12.5 102.5,12.5 96.5,12.5 Z"/></g>
<g><path style="opacity:1" fill="#5c5a9e" d="M 54.5,13.5 C 59.6405,12.5119 64.9738,12.1786 70.5,12.5C 71.8333,13.8333 71.8333,15.1667 70.5,16.5C 70.5,15.5 70.5,14.5 70.5,13.5C 65.1667,13.5 59.8333,13.5 54.5,13.5 Z"/></g>
<g><path style="opacity:1" fill="#6c69a5" d="M 96.5,12.5 C 102.5,12.5 108.5,12.5 114.5,12.5C 114.5,13.8333 114.5,15.1667 114.5,16.5C 108.167,17.8333 101.833,17.8333 95.5,16.5C 101.5,16.5 107.5,16.5 113.5,16.5C 113.5,15.5 113.5,14.5 113.5,13.5C 107.208,12.9469 101.208,13.6136 95.5,15.5C 95.2627,14.209 95.596,13.209 96.5,12.5 Z"/></g>
<g><path style="opacity:1" fill="#2a2879" d="M 95.5,16.5 C 95.5,16.1667 95.5,15.8333 95.5,15.5C 101.208,13.6136 107.208,12.9469 113.5,13.5C 113.5,14.5 113.5,15.5 113.5,16.5C 107.5,16.5 101.5,16.5 95.5,16.5 Z"/></g>
<g><path style="opacity:1" fill="#2c297e" d="M 54.5,13.5 C 59.8333,13.5 65.1667,13.5 70.5,13.5C 70.5,14.5 70.5,15.5 70.5,16.5C 70.1667,16.5 69.8333,16.5 69.5,16.5C 63.7945,16.8288 58.1278,16.4954 52.5,15.5C 52.8555,14.4777 53.5222,13.811 54.5,13.5 Z"/></g>
<g><path style="opacity:1" fill="#a9abdc" d="M 47.5,13.5 C 47.5,13.1667 47.5,12.8333 47.5,12.5C 49.256,13.5521 49.9227,15.2188 49.5,17.5C 49.8195,22.3633 49.4861,27.03 48.5,31.5C 48.5,31.1667 48.5,30.8333 48.5,30.5C 48.8222,24.642 48.4889,18.9753 47.5,13.5 Z"/></g>
<g><path style="opacity:1" fill="#7067a5" d="M 31.5,12.5 C 32.791,12.2627 33.791,12.596 34.5,13.5C 33.1779,13.33 32.0113,13.6634 31,14.5C 30.5006,19.8229 30.334,25.1563 30.5,30.5C 31.8333,30.5 33.1667,30.5 34.5,30.5C 34.5,30.8333 34.5,31.1667 34.5,31.5C 32.8333,31.5 31.1667,31.5 29.5,31.5C 29.3338,25.4908 29.5005,19.4908 30,13.5C 30.3826,12.944 30.8826,12.6107 31.5,12.5 Z"/></g>
<g><path style="opacity:1" fill="#9898d0" d="M 70.5,12.5 C 64.9738,12.1786 59.6405,12.5119 54.5,13.5C 53.5222,13.811 52.8555,14.4777 52.5,15.5C 58.1278,16.4954 63.7945,16.8288 69.5,16.5C 65.03,17.4861 60.3633,17.8195 55.5,17.5C 54.1667,17.5 52.8333,17.5 51.5,17.5C 51.5,16.5 51.5,15.5 51.5,14.5C 51.9528,13.5416 52.6195,12.7083 53.5,12C 59.3487,11.1816 65.0154,11.3483 70.5,12.5 Z"/></g>
<g><path style="opacity:1" fill="#b4b5ea" d="M 55.5,18.5 C 59.3714,18.185 63.0381,18.5184 66.5,19.5C 61.6367,19.1805 56.97,19.5139 52.5,20.5C 53.1098,21.391 53.4431,22.391 53.5,23.5C 51.7868,22.3646 51.1201,20.698 51.5,18.5C 52.8333,18.5 54.1667,18.5 55.5,18.5 Z"/></g>
<g><path style="opacity:1" fill="#bebcf7" d="M 85.5,12.5 C 86.1667,12.5 86.8333,12.5 87.5,12.5C 87.5,13.1667 87.5,13.8333 87.5,14.5C 87.5,19.5 87.5,24.5 87.5,29.5C 86.8333,24.8333 86.1667,20.1667 85.5,15.5C 85.5,14.5 85.5,13.5 85.5,12.5 Z"/></g>
<g><path style="opacity:1" fill="#32298e" d="M 34.5,13.5 C 34.5,19.1667 34.5,24.8333 34.5,30.5C 33.1667,30.5 31.8333,30.5 30.5,30.5C 30.334,25.1563 30.5006,19.8229 31,14.5C 32.0113,13.6634 33.1779,13.33 34.5,13.5 Z"/></g>
<g><path style="opacity:1" fill="#342e8f" d="M 47.5,13.5 C 48.4889,18.9753 48.8222,24.642 48.5,30.5C 47.1667,30.5 45.8333,30.5 44.5,30.5C 44.5,24.8333 44.5,19.1667 44.5,13.5C 45.5,13.5 46.5,13.5 47.5,13.5 Z"/></g>
<g><path style="opacity:1" fill="#5b5795" d="M 87.5,12.5 C 90.285,11.9162 91.9517,12.9162 92.5,15.5C 92.5,20.8333 92.5,26.1667 92.5,31.5C 90.5853,31.7845 88.9187,31.4511 87.5,30.5C 88.8333,30.5 90.1667,30.5 91.5,30.5C 91.8275,25.456 91.4941,20.456 90.5,15.5C 89.5832,14.8728 88.5832,14.5394 87.5,14.5C 87.5,13.8333 87.5,13.1667 87.5,12.5 Z"/></g>
<g><path style="opacity:1" fill="#322d81" d="M 52.5,20.5 C 57.5,20.5 62.5,20.5 67.5,20.5C 67.5,21.5 67.5,22.5 67.5,23.5C 62.8333,23.5 58.1667,23.5 53.5,23.5C 53.4431,22.391 53.1098,21.391 52.5,20.5 Z"/></g>
<g><path style="opacity:1" fill="#2e2982" d="M 80.5,13.5 C 81.8333,13.5 83.1667,13.5 84.5,13.5C 84.5,18.1667 84.5,22.8333 84.5,27.5C 83.1667,27.5 81.8333,27.5 80.5,27.5C 80.5,22.8333 80.5,18.1667 80.5,13.5 Z"/></g>
<g><path style="opacity:1" fill="#494789" d="M 52.5,20.5 C 56.97,19.5139 61.6367,19.1805 66.5,19.5C 69.8211,20.0981 70.8211,21.7647 69.5,24.5C 63.9738,24.8214 58.6405,24.4881 53.5,23.5C 58.1667,23.5 62.8333,23.5 67.5,23.5C 67.5,22.5 67.5,21.5 67.5,20.5C 62.5,20.5 57.5,20.5 52.5,20.5 Z"/></g>
<g><path style="opacity:1" fill="#353186" d="M 95.5,19.5 C 100.167,19.5 104.833,19.5 109.5,19.5C 109.5,21.1667 109.5,22.8333 109.5,24.5C 104.833,24.5 100.167,24.5 95.5,24.5C 95.5,22.8333 95.5,21.1667 95.5,19.5 Z"/></g>
<g><path style="opacity:1" fill="#afaeef" d="M 31.5,12.5 C 31.5,12.1667 31.5,11.8333 31.5,11.5C 32.8333,11.5 34.1667,11.5 35.5,11.5C 35.824,18.3543 35.4907,25.021 34.5,31.5C 34.5,31.1667 34.5,30.8333 34.5,30.5C 34.5,24.8333 34.5,19.1667 34.5,13.5C 33.791,12.596 32.791,12.2627 31.5,12.5 Z"/></g>
<g><path style="opacity:1" fill="#5a5997" d="M 74.5,13.5 C 75.5676,12.5655 76.901,12.2322 78.5,12.5C 78.5,18.8333 78.5,25.1667 78.5,31.5C 76.5853,31.7845 74.9187,31.4511 73.5,30.5C 74.8333,30.5 76.1667,30.5 77.5,30.5C 77.5,24.8333 77.5,19.1667 77.5,13.5C 76.5,13.5 75.5,13.5 74.5,13.5 Z"/></g>
<g><path style="opacity:1" fill="#c2c0f7" d="M 95.5,24.5 C 100.167,24.5 104.833,24.5 109.5,24.5C 111.167,25.1667 112.833,25.8333 114.5,26.5C 108.167,26.5 101.833,26.5 95.5,26.5C 95.5,25.8333 95.5,25.1667 95.5,24.5 Z"/></g>
<g><path style="opacity:1" fill="#6563aa" d="M 47.5,12.5 C 47.5,12.8333 47.5,13.1667 47.5,13.5C 46.5,13.5 45.5,13.5 44.5,13.5C 44.5,19.1667 44.5,24.8333 44.5,30.5C 45.8333,30.5 47.1667,30.5 48.5,30.5C 48.5,30.8333 48.5,31.1667 48.5,31.5C 46.8333,31.5 45.1667,31.5 43.5,31.5C 43.5,25.1667 43.5,18.8333 43.5,12.5C 44.8333,12.5 46.1667,12.5 47.5,12.5 Z"/></g>
<g><path style="opacity:1" fill="#514d91" d="M 80.5,13.5 C 80.5,13.1667 80.5,12.8333 80.5,12.5C 82.1667,12.5 83.8333,12.5 85.5,12.5C 85.5,13.5 85.5,14.5 85.5,15.5C 85.5,19.8333 85.5,24.1667 85.5,28.5C 83.5853,28.7845 81.9187,28.4511 80.5,27.5C 81.8333,27.5 83.1667,27.5 84.5,27.5C 84.5,22.8333 84.5,18.1667 84.5,13.5C 83.1667,13.5 81.8333,13.5 80.5,13.5 Z"/></g>
<g><path style="opacity:1" fill="#403a94" d="M 53.5,27.5 C 53.5,27.1667 53.5,26.8333 53.5,26.5C 58.8333,26.5 64.1667,26.5 69.5,26.5C 69.8333,26.5 70.1667,26.5 70.5,26.5C 70.7709,28.3797 70.1042,29.713 68.5,30.5C 66.5,30.5 64.5,30.5 62.5,30.5C 64.3691,29.8354 66.3691,29.1687 68.5,28.5C 63.544,27.5059 58.544,27.1725 53.5,27.5 Z"/></g>
<g><path style="opacity:1" fill="#5a53ab" d="M 95.5,26.5 C 101.833,26.5 108.167,26.5 114.5,26.5C 114.5,28.1667 114.5,29.8333 114.5,31.5C 108.642,31.8222 102.975,31.4889 97.5,30.5C 95.8235,29.8166 95.1568,28.4832 95.5,26.5 Z"/></g>
<g><path style="opacity:1" fill="#32289f" d="M 53.5,27.5 C 58.544,27.1725 63.544,27.5059 68.5,28.5C 66.3691,29.1687 64.3691,29.8354 62.5,30.5C 59.1667,30.5 55.8333,30.5 52.5,30.5C 52.2627,29.209 52.596,28.209 53.5,27.5 Z"/></g>
<g><path style="opacity:1" fill="#372f98" d="M 87.5,14.5 C 88.5832,14.5394 89.5832,14.8728 90.5,15.5C 91.4941,20.456 91.8275,25.456 91.5,30.5C 90.1667,30.5 88.8333,30.5 87.5,30.5C 87.5,30.1667 87.5,29.8333 87.5,29.5C 87.5,24.5 87.5,19.5 87.5,14.5 Z"/></g>
<g><path style="opacity:1" fill="#2f2598" d="M 97.5,30.5 C 97.1961,29.8501 96.8627,29.1835 96.5,28.5C 101.467,27.3377 106.467,27.1711 111.5,28C 112.308,28.3076 112.975,28.8076 113.5,29.5C 108.208,30.4948 102.875,30.8282 97.5,30.5 Z"/></g>
<g><path style="opacity:1" fill="#d6d7f9" d="M 78.5,12.5 C 79.1667,12.5 79.8333,12.5 80.5,12.5C 80.5,12.8333 80.5,13.1667 80.5,13.5C 80.5,18.1667 80.5,22.8333 80.5,27.5C 81.9187,28.4511 83.5853,28.7845 85.5,28.5C 85.5,24.1667 85.5,19.8333 85.5,15.5C 86.1667,20.1667 86.8333,24.8333 87.5,29.5C 87.5,29.8333 87.5,30.1667 87.5,30.5C 88.9187,31.4511 90.5853,31.7845 92.5,31.5C 92.5,26.1667 92.5,20.8333 92.5,15.5C 93.3171,17.9686 93.8171,20.6353 94,23.5C 94.21,21.9419 94.71,20.6085 95.5,19.5C 95.5,21.1667 95.5,22.8333 95.5,24.5C 95.5,25.1667 95.5,25.8333 95.5,26.5C 95.1568,28.4832 95.8235,29.8166 97.5,30.5C 102.975,31.4889 108.642,31.8222 114.5,31.5C 114.5,31.8333 114.5,32.1667 114.5,32.5C 93.5,32.5 72.5,32.5 51.5,32.5C 51.5,32.1667 51.5,31.8333 51.5,31.5C 57.358,31.8222 63.0247,31.4889 68.5,30.5C 70.1042,29.713 70.7709,28.3797 70.5,26.5C 71.2598,28.2238 71.5931,29.8905 71.5,31.5C 72.1668,25.3465 72.8334,19.3465 73.5,13.5C 73.5,19.1667 73.5,24.8333 73.5,30.5C 74.9187,31.4511 76.5853,31.7845 78.5,31.5C 78.5,25.1667 78.5,18.8333 78.5,12.5 Z"/></g>
<g><path style="opacity:1" fill="#3a3492" d="M 73.5,13.5 C 73.8333,13.5 74.1667,13.5 74.5,13.5C 75.5,13.5 76.5,13.5 77.5,13.5C 77.5,19.1667 77.5,24.8333 77.5,30.5C 76.1667,30.5 74.8333,30.5 73.5,30.5C 73.5,24.8333 73.5,19.1667 73.5,13.5 Z"/></g>
<g><path style="opacity:1" fill="#e9ecfc" d="M 47.5,12.5 C 46.1667,12.5 44.8333,12.5 43.5,12.5C 43.5,18.8333 43.5,25.1667 43.5,31.5C 45.1667,31.5 46.8333,31.5 48.5,31.5C 49.4861,27.03 49.8195,22.3633 49.5,17.5C 50.1667,16.5 50.8333,15.5 51.5,14.5C 51.5,15.5 51.5,16.5 51.5,17.5C 52.8333,17.5 54.1667,17.5 55.5,17.5C 55.5,17.8333 55.5,18.1667 55.5,18.5C 54.1667,18.5 52.8333,18.5 51.5,18.5C 51.1201,20.698 51.7868,22.3646 53.5,23.5C 58.6405,24.4881 63.9738,24.8214 69.5,24.5C 69.5,25.1667 69.5,25.8333 69.5,26.5C 64.1667,26.5 58.8333,26.5 53.5,26.5C 51.744,27.5521 51.0773,29.2188 51.5,31.5C 51.5,31.8333 51.5,32.1667 51.5,32.5C 44.1667,32.5 36.8333,32.5 29.5,32.5C 29.5,32.1667 29.5,31.8333 29.5,31.5C 31.1667,31.5 32.8333,31.5 34.5,31.5C 35.4907,25.021 35.824,18.3543 35.5,11.5C 34.1667,11.5 32.8333,11.5 31.5,11.5C 31.8764,10.0181 31.8764,8.68478 31.5,7.5C 32.4776,7.97665 33.3109,8.64332 34,9.5C 36.5974,9.75856 39.4308,9.09189 42.5,7.5C 43.8818,9.54859 45.5484,11.2153 47.5,12.5 Z"/></g>
<g><path style="opacity:1" fill="#8386b6" d="M 41.5,28.5 C 41.5,23.5 41.5,18.5 41.5,13.5C 40.1667,13.5 38.8333,13.5 37.5,13.5C 37.5,18.5 37.5,23.5 37.5,28.5C 36.5111,23.0247 36.1778,17.358 36.5,11.5C 38.4672,11.2606 40.3005,11.5939 42,12.5C 42.8174,18.0164 42.6507,23.3497 41.5,28.5 Z"/></g>
<g><path style="opacity:1" fill="#2e2986" d="M 41.5,28.5 C 40.1667,28.5 38.8333,28.5 37.5,28.5C 37.5,23.5 37.5,18.5 37.5,13.5C 38.8333,13.5 40.1667,13.5 41.5,13.5C 41.5,18.5 41.5,23.5 41.5,28.5 Z"/></g>
<g><path style="opacity:1" fill="#726cc4" d="M 53.5,26.5 C 53.5,26.8333 53.5,27.1667 53.5,27.5C 52.596,28.209 52.2627,29.209 52.5,30.5C 55.8333,30.5 59.1667,30.5 62.5,30.5C 64.5,30.5 66.5,30.5 68.5,30.5C 63.0247,31.4889 57.358,31.8222 51.5,31.5C 51.0773,29.2188 51.744,27.5521 53.5,26.5 Z"/></g>
<g><path style="opacity:1" fill="#69659f" d="M 29.5,32.5 C 36.8333,32.5 44.1667,32.5 51.5,32.5C 72.5,32.5 93.5,32.5 114.5,32.5C 114.5,33.1667 114.5,33.8333 114.5,34.5C 86.1667,34.5 57.8333,34.5 29.5,34.5C 29.5,33.8333 29.5,33.1667 29.5,32.5 Z"/></g>
<g><path style="opacity:1" fill="#eceafd" d="M 29.5,34.5 C 57.8333,34.5 86.1667,34.5 114.5,34.5C 114.5,35.8333 114.5,37.1667 114.5,38.5C 105.102,36.507 95.4352,35.507 85.5,35.5C 85.3781,39.8383 85.0447,40.1716 84.5,36.5C 78.509,36.0343 72.509,35.701 66.5,35.5C 66.5,37.1667 66.5,38.8333 66.5,40.5C 68.1667,40.5 69.8333,40.5 71.5,40.5C 69.5,41.8333 67.5,43.1667 65.5,44.5C 64.8333,45.5 64.1667,46.5 63.5,47.5C 62.3991,48.5983 61.0657,48.765 59.5,48C 60.6956,47.3457 60.6956,46.8457 59.5,46.5C 56.08,46.668 52.58,46.668 49,46.5C 47.0683,48.1779 44.9017,48.6779 42.5,48C 41.7476,47.3292 41.4142,46.4959 41.5,45.5C 42.7564,45.9038 43.9231,46.5705 45,47.5C 46.9214,45.9972 49.088,45.3305 51.5,45.5C 51.5,44.5 51.5,43.5 51.5,42.5C 48.1667,42.5 44.8333,42.5 41.5,42.5C 37.3656,41.5151 33.0323,41.1818 28.5,41.5C 28.2155,39.5853 28.5489,37.9187 29.5,36.5C 29.5106,38.0174 30.1772,39.1841 31.5,40C 35.1667,40.6667 38.8333,40.6667 42.5,40C 43.3366,38.9887 43.67,37.8221 43.5,36.5C 39.1667,36.5 34.8333,36.5 30.5,36.5C 30.1667,35.8333 29.8333,35.1667 29.5,34.5 Z"/></g>
<g><path style="opacity:1" fill="#9f9ec6" d="M 29.5,36.5 C 29.8333,36.5 30.1667,36.5 30.5,36.5C 34.8333,36.5 39.1667,36.5 43.5,36.5C 43.67,37.8221 43.3366,38.9887 42.5,40C 38.8333,40.6667 35.1667,40.6667 31.5,40C 30.1772,39.1841 29.5106,38.0174 29.5,36.5 Z"/></g>
<g><path style="opacity:1" fill="#a5a3d3" d="M 46.5,36.5 C 50.1667,36.5 53.8333,36.5 57.5,36.5C 57.6932,40.449 58.1932,40.449 59,36.5C 59.6667,37.1667 60.3333,37.8333 61,38.5C 62.1096,36.9632 63.6096,36.2965 65.5,36.5C 65.8841,38.6648 65.2174,40.3315 63.5,41.5C 58.2187,40.7139 52.8854,40.2139 47.5,40C 46.6634,38.9887 46.33,37.8221 46.5,36.5 Z"/></g>
<g><path style="opacity:1" fill="#acaad6" d="M 114.5,38.5 C 114.389,39.1174 114.056,39.6174 113.5,40C 109.848,40.4986 106.182,40.6653 102.5,40.5C 93.7097,40.4299 84.7097,40.4299 75.5,40.5C 74.1667,40.5 72.8333,40.5 71.5,40.5C 69.8333,40.5 68.1667,40.5 66.5,40.5C 66.5,38.8333 66.5,37.1667 66.5,35.5C 72.509,35.701 78.509,36.0343 84.5,36.5C 85.0447,40.1716 85.3781,39.8383 85.5,35.5C 95.4352,35.507 105.102,36.507 114.5,38.5 Z"/></g>
<g><path style="opacity:1" fill="#eaebfc" d="M 102.5,40.5 C 102.795,42.7354 102.461,44.7354 101.5,46.5C 101.5,45.1667 101.5,43.8333 101.5,42.5C 98.1667,42.5 94.8333,42.5 91.5,42.5C 91.4326,43.9587 91.7659,45.2921 92.5,46.5C 88.2698,46.0012 83.9364,46.3345 79.5,47.5C 77.9745,47.0057 76.6412,46.339 75.5,45.5C 79.5,45.5 83.5,45.5 87.5,45.5C 87.5,44.5 87.5,43.5 87.5,42.5C 83.5,42.5 79.5,42.5 75.5,42.5C 75.5,42.1667 75.5,41.8333 75.5,41.5C 75.5,41.1667 75.5,40.8333 75.5,40.5C 84.7097,40.4299 93.7097,40.4299 102.5,40.5 Z"/></g>
<g><path style="opacity:1" fill="#adacd4" d="M 41.5,42.5 C 44.8333,42.5 48.1667,42.5 51.5,42.5C 51.5,43.5 51.5,44.5 51.5,45.5C 49.088,45.3305 46.9214,45.9972 45,47.5C 43.9231,46.5705 42.7564,45.9038 41.5,45.5C 40.1667,44.5 40.1667,43.5 41.5,42.5 Z"/></g>
<g><path style="opacity:1" fill="#a7a8c5" d="M 75.5,42.5 C 79.5,42.5 83.5,42.5 87.5,42.5C 87.5,43.5 87.5,44.5 87.5,45.5C 83.5,45.5 79.5,45.5 75.5,45.5C 75.5,44.5 75.5,43.5 75.5,42.5 Z"/></g>
<g><path style="opacity:1" fill="#a09cd7" d="M 63.5,47.5 C 60.9681,46.3202 58.3014,45.3202 55.5,44.5C 58.0865,43.52 60.7531,43.1866 63.5,43.5C 63.5,44.8333 63.5,46.1667 63.5,47.5 Z"/></g>
<g><path style="opacity:1" fill="#bebfda" d="M 71.5,40.5 C 72.8333,40.5 74.1667,40.5 75.5,40.5C 75.5,40.8333 75.5,41.1667 75.5,41.5C 74.448,41.3505 73.448,41.5172 72.5,42C 73.9642,45.2409 72.7975,47.0743 69,47.5C 67.4009,46.9293 66.2342,45.9293 65.5,44.5C 67.5,43.1667 69.5,41.8333 71.5,40.5 Z"/></g>
<g><path style="opacity:1" fill="#b4b5d3" d="M 101.5,46.5 C 98.6463,46.1179 95.6463,46.1179 92.5,46.5C 91.7659,45.2921 91.4326,43.9587 91.5,42.5C 94.8333,42.5 98.1667,42.5 101.5,42.5C 101.5,43.8333 101.5,45.1667 101.5,46.5 Z"/></g>
</svg>
